<?xml version="1.0" encoding="utf-8"?>
<!-- Generator: Adobe Illustrator 27.5.0, SVG Export Plug-In . SVG Version: 6.00 Build 0)  -->
<svg version="1.1" xmlns="http://www.w3.org/2000/svg" xmlns:xlink="http://www.w3.org/1999/xlink" x="0px" y="0px"
	 viewBox="0 0 500 500" style="enable-background:new 0 0 500 500;" xml:space="preserve">
<g id="BACKGROUND">
	<rect style="fill:#FFFFFF;" width="500" height="500"/>
</g>
<g id="OBJECTS">
	<g>
		<g>
			<g>
				<path style="fill:#B5C2F6;" d="M323.311,178.057c-8.78-1.94-17.31-4.62-25.1-8.65c-1.64-0.85-3.21-1.77-4.74-2.77
					c-13.97-9.17-23.51-24.34-34.7-36.42c-47.93-51.75-131.98-35.39-175.98,12.89c-18.79,20.61-31.37,46.86-35.48,74.45
					c-8.31,55.88,16.24,115.42,74.41,130.4c35.06,9.03,68.85-0.95,103.66-4.86c9.41-1.06,18.84-1.02,28.22-0.2
					c4.21,0.36,8.41,0.89,12.59,1.55c7.01,1.1,13.97,2.56,20.86,4.27c5.85,1.44,11.64,3.06,17.36,4.76
					c1.04,0.31,2.08,0.63,3.12,0.95c15.66,4.89,32.11,11.52,48.71,16.42c0.53,0.16,1.07,0.32,1.61,0.47
					c12.35,3.56,24.77,6.1,37,6.17c56.85,0.33,84.38-64.87,70.58-113.5c-13.71-48.32-60.84-68.88-106.19-79.1
					c-2.55-0.57-5.09-1.12-7.62-1.63c-2.49-0.5-4.96-0.97-7.42-1.42c-1.56-0.29-3.11-0.56-4.66-0.82c-1.7-0.3-3.39-0.58-5.07-0.85
					c-0.67-0.11-1.34-0.22-2.01-0.33C329.391,179.317,326.331,178.727,323.311,178.057z"/>
				<path style="fill:#637ED3;" d="M127.291,389.05c-9.239,0-18.033-1.101-26.231-3.29c-11.427-3.052-22.043-8.308-31.551-15.623
					c-11.542-8.877-21.293-20.96-28.201-34.939c-6.949-14.065-10.536-29.089-10.372-43.448c0.125-10.884,2.387-21.01,6.723-30.097
					c4.683-9.815,11.704-18.198,20.868-24.919c8.764-6.429,19.382-11.868,33.416-17.117c0.523-0.201,1.053-0.395,1.575-0.583
					c8.937-3.278,18.225-6.133,27.207-8.893c7.571-2.327,14.723-4.524,21.693-6.958c1.025-0.362,2.05-0.726,3.069-1.097
					c6.29-2.294,11.775-4.428,16.771-6.523c6.981-2.913,13.289-5.857,19.285-9.001c3.896-2.038,7.606-4.143,11.025-6.256
					c8.559-5.264,15.926-10.814,22.52-16.967c6.272-5.848,12.369-12.045,18.266-18.038c18.074-18.369,36.762-37.363,62.108-47.678
					c26.161-10.649,53.726-9.611,79.713,3.002c23.711,11.509,44.28,31.895,57.918,57.402c13.062,24.447,18.71,53.212,15.904,80.999
					c-1.833,18.189-7.751,36.641-17.112,53.36c-9.393,16.774-22.017,31.374-36.507,42.222c-11.603,8.687-24.14,14.84-37.259,18.288
					c-14.033,3.688-28.462,4.188-42.886,1.488c-5.007-0.938-10.163-2.23-15.149-3.481c-11.25-2.823-22.884-5.746-34.391-5.075
					c-1.85,0.109-3.631,0.306-5.444,0.599c-7.821,1.273-16.09,3.892-25.278,8.008c0,0,0,0-0.001,0
					c-2.712,1.212-5.539,2.565-8.402,4.022l-1.81,0.934c-1.772,0.92-3.227,1.664-4.579,2.34c-1.553,0.794-2.938,1.487-4.232,2.12
					c-2.438,1.201-4.665,2.275-6.806,3.283c-2.111,0.993-4.431,2.051-7.092,3.234c-25.206,11.164-47.206,17.198-67.259,18.448
					C132.26,388.972,129.759,389.05,127.291,389.05z M331.888,90.586c-12.216,0-24.42,2.419-36.335,7.269
					c-25.298,10.296-43.968,29.271-62.024,47.622c-5.898,5.995-11.997,12.193-18.273,18.045
					c-6.607,6.164-13.986,11.725-22.56,16.997c-3.424,2.115-7.139,4.223-11.04,6.265c-6.002,3.147-12.316,6.094-19.304,9.01
					c-4.999,2.098-10.488,4.233-16.781,6.528c-1.021,0.372-2.047,0.735-3.073,1.098c-6.975,2.436-14.128,4.634-21.702,6.961
					c-8.979,2.76-18.263,5.613-27.195,8.889c-0.521,0.187-1.049,0.381-1.571,0.582c-14.013,5.242-24.612,10.67-33.357,17.084
					c-9.129,6.696-16.124,15.048-20.79,24.825c-4.321,9.055-6.575,19.146-6.699,29.992c-0.164,14.32,3.414,29.305,10.346,43.334
					c6.891,13.946,16.618,25.998,28.129,34.853c9.483,7.294,20.069,12.536,31.463,15.579c10.362,2.767,21.682,3.793,33.649,3.046
					c20.023-1.247,41.996-7.275,67.173-18.427c2.659-1.183,4.978-2.24,7.087-3.232c2.139-1.008,4.364-2.081,6.802-3.281
					c1.293-0.632,2.676-1.325,4.229-2.118c1.351-0.676,2.805-1.419,4.577-2.34l1.811-0.934c2.867-1.459,5.698-2.813,8.414-4.027l0,0
					c9.208-4.125,17.498-6.75,25.34-8.025c1.822-0.295,3.611-0.492,5.47-0.602c11.55-0.67,23.197,2.256,34.466,5.082
					c4.983,1.25,10.136,2.543,15.136,3.479c14.384,2.693,28.777,2.195,42.775-1.484c13.088-3.439,25.595-9.578,37.173-18.246
					c14.462-10.827,27.063-25.399,36.438-42.143c9.345-16.69,15.252-35.107,17.082-53.263c2.8-27.737-2.838-56.452-15.877-80.855
					c-13.612-25.461-34.143-45.809-57.807-57.295C360.978,94.013,346.425,90.586,331.888,90.586z M234.917,354.32h0.003H234.917z"/>
			</g>
			<g>
				<g>
					<path style="fill:#FBB136;" d="M148.491,375.794c-0.552,0-1-0.447-1-1V361.19c0-0.553,0.448-1,1-1c0.552,0,1,0.447,1,1v13.605
						C149.491,375.347,149.044,375.794,148.491,375.794z"/>
					<path style="fill:#FBB136;" d="M155.294,368.992h-13.604c-0.552,0-1-0.447-1-1s0.448-1,1-1h13.604c0.552,0,1,0.447,1,1
						S155.846,368.992,155.294,368.992z"/>
				</g>
				<g>
					<path style="fill:#FBB136;" d="M316.774,145.262c-0.553,0-1-0.448-1-1v-13.604c0-0.552,0.447-1,1-1c0.553,0,1,0.448,1,1v13.604
						C317.774,144.814,317.327,145.262,316.774,145.262z"/>
					<path style="fill:#FBB136;" d="M323.577,138.46h-13.604c-0.553,0-1-0.448-1-1c0-0.552,0.447-1,1-1h13.604c0.553,0,1,0.448,1,1
						C324.577,138.012,324.129,138.46,323.577,138.46z"/>
				</g>
				<g>
					<path style="fill:#FBB136;" d="M118.306,102.398c-0.256,0-0.512-0.098-0.707-0.293c-0.391-0.391-0.391-1.023,0-1.414l9.62-9.62
						c0.391-0.391,1.023-0.391,1.414,0c0.391,0.391,0.391,1.023,0,1.414l-9.62,9.62
						C118.817,102.301,118.562,102.398,118.306,102.398z"/>
					<path style="fill:#FBB136;" d="M127.925,102.398c-0.256,0-0.512-0.098-0.707-0.293l-9.62-9.62
						c-0.391-0.391-0.391-1.024,0-1.414c0.391-0.391,1.023-0.391,1.414,0l9.62,9.62c0.391,0.391,0.391,1.023,0,1.414
						C128.437,102.301,128.181,102.398,127.925,102.398z"/>
				</g>
				<g>
					<path style="fill:#407FFE;" d="M60.857,329.571c-0.552,0-1-0.447-1-1v-13.604c0-0.553,0.448-1,1-1c0.552,0,1,0.447,1,1v13.604
						C61.857,329.123,61.409,329.571,60.857,329.571z"/>
					<path style="fill:#407FFE;" d="M67.659,322.768H54.055c-0.552,0-1-0.447-1-1c0-0.553,0.448-1,1-1h13.604c0.552,0,1,0.447,1,1
						C68.659,322.321,68.212,322.768,67.659,322.768z"/>
				</g>
				<g>
					<path style="fill:#407FFE;" d="M289.966,371.752c-0.256,0-0.512-0.098-0.707-0.293l-9.619-9.62
						c-0.391-0.391-0.391-1.023,0-1.414c0.391-0.391,1.023-0.391,1.414,0l9.619,9.62c0.391,0.391,0.391,1.023,0,1.414
						C290.478,371.655,290.222,371.752,289.966,371.752z"/>
					<path style="fill:#407FFE;" d="M280.347,371.752c-0.256,0-0.512-0.098-0.707-0.293c-0.391-0.391-0.391-1.023,0-1.414
						l9.619-9.62c0.391-0.391,1.023-0.391,1.414,0c0.391,0.391,0.391,1.023,0,1.414l-9.619,9.62
						C280.859,371.655,280.603,371.752,280.347,371.752z"/>
				</g>
				<g>
					<path style="fill:#407FFE;" d="M441.369,198.503c-0.553,0-1-0.448-1-1v-13.604c0-0.552,0.447-1,1-1c0.553,0,1,0.448,1,1v13.604
						C442.369,198.055,441.921,198.503,441.369,198.503z"/>
					<path style="fill:#407FFE;" d="M448.171,191.701h-13.604c-0.553,0-1-0.448-1-1s0.447-1,1-1h13.604c0.553,0,1,0.448,1,1
						S448.724,191.701,448.171,191.701z"/>
				</g>
			</g>
			<g>
				<path style="fill:#B5C2F6;" d="M46.415,295.523c0-2.577-2.089-4.665-4.665-4.665c-2.577,0-4.665,2.089-4.665,4.665
					s2.089,4.665,4.665,4.665C44.326,300.189,46.415,298.1,46.415,295.523z"/>
				<path style="fill:#B5C2F6;" d="M258.885,105.936c0-2.577-2.089-4.665-4.665-4.665c-2.577,0-4.665,2.089-4.665,4.665
					s2.089,4.665,4.665,4.665C256.796,110.601,258.885,108.512,258.885,105.936z"/>
				<path style="fill:#B5C2F6;" d="M462.671,214.066c0-2.577-2.089-4.665-4.665-4.665s-4.665,2.089-4.665,4.665
					s2.089,4.665,4.665,4.665S462.671,216.642,462.671,214.066z"/>
				<circle style="fill:#B5C2F6;" cx="113.621" cy="384.931" r="9.495"/>
				
					<ellipse transform="matrix(0.987 -0.1607 0.1607 0.987 -13.6413 56.1384)" style="fill:#B5C2F6;" cx="340.339" cy="112.427" rx="9.495" ry="9.495"/>
			</g>
		</g>
		<g>
			<path style="fill:#607BFF;" d="M282.981,300.643H86.589c-8.177,0-14.805-6.629-14.805-14.805v-146.5
				c0-8.177,6.629-14.805,14.805-14.805h196.392c8.177,0,14.805,6.629,14.805,14.805v146.5
				C297.786,294.014,291.158,300.643,282.981,300.643z"/>
			<path style="fill:#EBF3FF;" d="M86.257,293.313c-4.122,0-7.475-3.354-7.475-7.476V166.402c0-4.122,3.353-7.475,7.475-7.475
				h196.392c4.122,0,7.476,3.354,7.476,7.475v119.435c0,4.122-3.354,7.476-7.476,7.476H86.257z"/>
			<g>
				<g>
					<rect x="85.411" y="166.971" style="fill:#E1ECFF;" width="22.083" height="21.502"/>
					<rect x="114.855" y="166.971" style="fill:#E1ECFF;" width="22.083" height="21.502"/>
					<rect x="144.299" y="166.971" style="fill:#FBB136;" width="22.083" height="21.502"/>
					<rect x="173.743" y="166.971" style="fill:#E1ECFF;" width="22.083" height="21.502"/>
					<rect x="203.188" y="166.971" style="fill:#E1ECFF;" width="22.083" height="21.502"/>
					<rect x="232.632" y="166.971" style="fill:#E1ECFF;" width="22.083" height="21.502"/>
					<rect x="262.076" y="166.971" style="fill:#6177FF;" width="22.083" height="21.502"/>
				</g>
				<g>
					<rect x="85.411" y="198.883" style="fill:#F0746A;" width="22.083" height="21.502"/>
					<rect x="114.855" y="198.883" style="fill:#E1ECFF;" width="22.083" height="21.502"/>
					<rect x="144.299" y="198.883" style="fill:#E1ECFF;" width="22.083" height="21.502"/>
					<rect x="173.743" y="198.883" style="fill:#E1ECFF;" width="22.083" height="21.502"/>
					<rect x="203.188" y="198.883" style="fill:#E1ECFF;" width="22.083" height="21.502"/>
					<rect x="232.632" y="198.883" style="fill:#E1ECFF;" width="22.083" height="21.502"/>
					<rect x="262.076" y="198.883" style="fill:#F0746A;" width="22.083" height="21.502"/>
				</g>
				<g>
					<rect x="85.411" y="230.796" style="fill:#E1ECFF;" width="22.083" height="21.502"/>
					<rect x="114.855" y="230.796" style="fill:#F0746A;" width="22.083" height="21.502"/>
					<rect x="144.299" y="230.796" style="fill:#E1ECFF;" width="22.083" height="21.502"/>
					<rect x="173.743" y="230.796" style="fill:#6177FF;" width="22.083" height="21.502"/>
					<rect x="203.188" y="230.796" style="fill:#E1ECFF;" width="22.083" height="21.502"/>
					<rect x="232.632" y="230.796" style="fill:#6177FF;" width="22.083" height="21.502"/>
					<rect x="262.076" y="230.796" style="fill:#E1ECFF;" width="22.083" height="21.502"/>
				</g>
				<g>
					<rect x="85.411" y="262.708" style="fill:#F0746A;" width="22.083" height="21.502"/>
					<rect x="114.855" y="262.708" style="fill:#6177FF;" width="22.083" height="21.502"/>
					<rect x="144.299" y="262.708" style="fill:#E1ECFF;" width="22.083" height="21.502"/>
					<rect x="173.743" y="262.708" style="fill:#E1ECFF;" width="22.083" height="21.502"/>
					<rect x="203.188" y="262.708" style="fill:#E1ECFF;" width="22.083" height="21.502"/>
					<rect x="232.632" y="262.708" style="fill:#F0746A;" width="22.083" height="21.502"/>
					<rect x="262.076" y="262.708" style="fill:#6177FF;" width="22.083" height="21.502"/>
				</g>
			</g>
			<g>
				<g>
					<g>
						<path style="fill:#FFFFFF;" d="M93.442,149.02h-3.417l-2.013-6.728c0.132,0.887,0.357,2.159,0.357,3.867v2.861h-2.411v-9.218
							h3.352l2.093,6.755c-0.173-1.073-0.371-2.132-0.371-3.801v-2.954h2.41V149.02z"/>
						<path style="fill:#FFFFFF;" d="M104.444,144.398c0,2.994-1.536,4.888-4.305,4.888c-2.768,0-4.305-1.828-4.305-4.888
							c0-2.993,1.537-4.86,4.305-4.86C102.908,139.538,104.444,141.338,104.444,144.398z M98.67,144.398
							c0,2.133,0.437,2.954,1.47,2.954c1.06,0,1.471-0.821,1.471-2.954c0-2.132-0.438-2.927-1.471-2.927
							C99.106,141.471,98.67,142.266,98.67,144.398z"/>
						<path style="fill:#FFFFFF;" d="M111.87,149.02h-3.523l-2.477-9.218h2.874l1.404,7.324l1.258-7.324h2.795L111.87,149.02z"/>
						<path style="fill:#FFFFFF;" d="M121.773,141.696h-3.047v1.722h2.676v1.841h-2.676v1.854h3.259v1.907h-5.987v-9.218h6.053
							L121.773,141.696z"/>
						<path style="fill:#FFFFFF;" d="M134.153,149.02h-2.688l-0.066-3.271c-0.026-1.192-0.026-2.384,0.093-3.761l-1.086,6.105
							h-2.583l-1.165-6.105c0.146,1.523,0.198,2.503,0.172,3.748l-0.066,3.285h-2.688l0.662-9.218h3.364l1.06,5.973l0.954-5.973
							h3.377L134.153,149.02z"/>
						<path style="fill:#FFFFFF;" d="M143.949,146.292c0,2.186-1.814,2.729-4.238,2.729h-3.232v-9.218h2.874
							c2.583,0,4.212,0.583,4.212,2.384c0,1.192-0.848,1.735-1.669,1.947C142.902,144.345,143.949,144.848,143.949,146.292z
							 M139.207,141.67v1.695h0.464c0.834,0,1.126-0.252,1.126-0.901c0-0.543-0.318-0.794-1.192-0.794H139.207z M141.141,146.107
							c0-0.715-0.45-1.02-1.298-1.02h-0.636v2.013h0.53C140.571,147.1,141.141,146.928,141.141,146.107z"/>
						<path style="fill:#FFFFFF;" d="M152.051,141.696h-3.047v1.722h2.676v1.841h-2.676v1.854h3.259v1.907h-5.987v-9.218h6.053
							L152.051,141.696z"/>
						<path style="fill:#FFFFFF;" d="M157.954,145.736h-0.503v3.285h-2.729v-9.218h3.377c2.636,0,3.961,0.9,3.961,2.927
							c0,1.165-0.504,1.854-1.63,2.503l2.252,3.788h-3.02L157.954,145.736z M157.451,143.908h0.715c0.742,0,1.112-0.371,1.112-1.179
							c0-0.729-0.437-1.06-1.244-1.06h-0.583V143.908z"/>
					</g>
				</g>
				<g>
					<g>
						<path style="fill:#FFFFFF;" d="M255.984,142.444c0,1.682-1.047,2.835-3.814,5.642h4.025l-0.132,0.94h-5.165v-0.887
							c3.151-3.311,3.92-4.172,3.92-5.643c0-0.967-0.609-1.536-1.497-1.536c-0.768,0-1.284,0.318-1.867,0.98l-0.729-0.582
							c0.716-0.875,1.55-1.312,2.65-1.312C254.977,140.047,255.984,141.08,255.984,142.444z"/>
						<path style="fill:#FFFFFF;" d="M265.026,144.616c0,2.94-0.967,4.57-2.914,4.57c-1.946,0-2.913-1.629-2.913-4.583
							s0.967-4.556,2.913-4.556C264.059,140.047,265.026,141.663,265.026,144.616z M260.352,144.603
							c0,2.636,0.608,3.695,1.761,3.695c1.14,0,1.762-1.06,1.762-3.682c0-2.635-0.622-3.682-1.762-3.682
							C260.96,140.934,260.352,141.981,260.352,144.603z"/>
						<path style="fill:#FFFFFF;" d="M272.81,142.444c0,1.682-1.046,2.835-3.814,5.642h4.027l-0.133,0.94h-5.166v-0.887
							c3.152-3.311,3.921-4.172,3.921-5.643c0-0.967-0.609-1.536-1.497-1.536c-0.768,0-1.284,0.318-1.867,0.98l-0.728-0.582
							c0.716-0.875,1.55-1.312,2.649-1.312C271.805,140.047,272.81,141.08,272.81,142.444z"/>
						<path style="fill:#FFFFFF;" d="M281.853,144.616c0,2.94-0.967,4.57-2.914,4.57c-1.946,0-2.913-1.629-2.913-4.583
							s0.967-4.556,2.913-4.556C280.887,140.047,281.853,141.663,281.853,144.616z M277.179,144.603
							c0,2.636,0.608,3.695,1.761,3.695c1.14,0,1.762-1.06,1.762-3.682c0-2.635-0.622-3.682-1.762-3.682
							C277.787,140.934,277.179,141.981,277.179,144.603z"/>
					</g>
				</g>
			</g>
		</g>
		<g>
			<g>
				
					<ellipse transform="matrix(0.9723 -0.2337 0.2337 0.9723 -65.5708 51.5491)" style="fill:#FBB136;" cx="184.785" cy="302.526" rx="39.033" ry="39.033"/>
				
					<ellipse transform="matrix(0.9868 -0.1618 0.1618 0.9868 -46.5219 33.8914)" style="fill:#FFDB76;" cx="184.785" cy="302.526" rx="32.711" ry="32.71"/>
				<path style="fill:#FFFFFF;" d="M184.786,304.026c-0.46,0-0.905-0.212-1.194-0.591l-13.866-18.209
					c-0.502-0.659-0.374-1.601,0.285-2.102c0.659-0.502,1.601-0.373,2.102,0.284l11.172,14.672v-24.506c0-0.828,0.671-1.5,1.5-1.5
					s1.5,0.672,1.5,1.5v28.952c0,0.644-0.411,1.216-1.02,1.421C185.107,304,184.945,304.026,184.786,304.026z"/>
				<rect x="175.612" y="260.535" style="fill:#FBB136;" width="18.635" height="5.436"/>
				<path style="fill:#FFDB76;" d="M195.739,260.535h-21.62c-1.501,0-2.718-1.217-2.718-2.718l0,0c0-1.501,1.217-2.718,2.718-2.718
					h21.62c1.501,0,2.718,1.217,2.718,2.718l0,0C198.457,259.318,197.24,260.535,195.739,260.535z"/>
				<path style="fill:#FFDB76;" d="M143.475,311.351L143.475,311.351c-1.257,0-2.277-1.019-2.277-2.277v-13.097
					c0-1.257,1.019-2.277,2.277-2.277l0,0c1.257,0,2.277,1.019,2.277,2.277v13.097C145.752,310.331,144.732,311.351,143.475,311.351
					z"/>
			</g>
			<g>
				<g>
					<path style="fill:#407FFE;" d="M156.518,255.799H42.404c-4.974,0-9.005-4.032-9.005-9.005v-36.57
						c0-4.974,4.032-9.005,9.005-9.005h114.113c4.973,0,9.005,4.032,9.005,9.005v36.57
						C165.523,251.768,161.491,255.799,156.518,255.799z"/>
					<g>
						<path style="fill:#FFFFFF;" d="M150.926,224.756H47.996c-0.873,0-1.581-0.708-1.581-1.581l0,0
							c0-0.873,0.708-1.581,1.581-1.581h102.93c0.873,0,1.581,0.708,1.581,1.581l0,0
							C152.507,224.048,151.799,224.756,150.926,224.756z"/>
						<path style="fill:#FFFFFF;" d="M150.926,233.656H47.996c-0.873,0-1.581-0.708-1.581-1.581l0,0
							c0-0.873,0.708-1.581,1.581-1.581h102.93c0.873,0,1.581,0.708,1.581,1.581l0,0
							C152.507,232.948,151.799,233.656,150.926,233.656z"/>
					</g>
				</g>
				<polygon style="fill:#407FFE;" points="133.532,201.219 155.293,174.314 152.806,201.219 				"/>
			</g>
			<g>
				
					<ellipse transform="matrix(0.9739 -0.227 0.227 0.9739 -59.7993 71.1407)" style="fill:#328F60;" cx="279.355" cy="295.523" rx="27.933" ry="27.933"/>
				<path style="fill:#FFFFFF;" d="M269.46,307.056c-0.11,0-0.221-0.014-0.329-0.042c-0.375-0.097-0.686-0.355-0.852-0.705
					l-6.378-13.455c-0.31-0.653-0.031-1.433,0.621-1.742c0.655-0.31,1.434-0.031,1.742,0.621l5.709,12.043l24.897-17.765
					c0.589-0.418,1.405-0.282,1.824,0.305c0.42,0.588,0.283,1.405-0.305,1.824l-26.169,18.673
					C269.996,306.973,269.729,307.056,269.46,307.056z"/>
			</g>
		</g>
		<g>
			<path style="fill:#FFFFFF;" d="M444.539,291.887c-0.99,2.54-2.06,5.05-3.17,7.5h-0.01c-5.2-17.91-16.21-24.88-22.5-27.47
				c-2.8-1.16-4.66-1.44-4.66-1.44c0.74-1.75,1.57-3.37,2.44-4.87C416.639,265.607,435.239,266.117,444.539,291.887z"/>
			<path style="fill:#CE3F38;" d="M406.059,265.607l15.47-6.81c-1.7,1.94-3.38,4.19-4.89,6.81c-0.87,1.5-1.7,3.12-2.44,4.87
				c-0.97,2.27-1.82,4.74-2.49,7.45L406.059,265.607z"/>
			<path style="fill:#DD6936;" d="M419.209,294.267l-7.5-16.34c0.67-2.71,1.52-5.18,2.49-7.45c0,0,1.86,0.28,4.66,1.44
				C418.859,271.917,417.859,281.167,419.209,294.267z"/>
			<path style="fill:#CE3F38;" d="M416.419,377.247l-1.77-6.4c0.53,0.16,1.07,0.32,1.61,0.47
				C416.319,373.307,416.379,375.287,416.419,377.247z"/>
			<path style="fill:#CE3F38;" d="M416.259,371.317c-0.54-0.15-1.08-0.31-1.61-0.47l-2.6-9.44c1.27-0.19,2.54-0.47,3.8-0.84
				C416.009,364.087,416.139,367.707,416.259,371.317z"/>
			<path style="fill:#CE3F38;" d="M414.199,337.897c0.72,5.86,1.26,13.97,1.65,22.67c-1.26,0.37-2.53,0.65-3.8,0.84l-6.39-23.14
				v-0.01C407.919,339.117,410.749,339.277,414.199,337.897z"/>
			<path style="fill:#212155;" d="M409.799,194.707h-0.01l-1.44-2.04l-6.14-8.65l-3.67,2.97l-5.04,4.08l-7.75,6.27
				c1.47-0.89,3.25-1.14,4.91-0.69l4.73,1.27c0.54,0.14,1.03,0.38,1.48,0.68v-6.59c0-0.66,0.27-1.26,0.7-1.69
				c0.27-0.27,0.6-0.47,0.97-0.59c0.22-0.07,0.46-0.11,0.71-0.11c1.24,0,2.28,0.95,2.39,2.18l1.14,13.05l0.33,3.68l1.2-1.08
				l8.83-8.03L409.799,194.707z"/>
			<path style="fill:#DD6936;" d="M393.099,184.987c0.42,1.75,0.61,3.77,0.4,6.08l-7.75,6.27l-1.09,0.66
				c-1.18,0.71-1.71,2.15-1.27,3.46l-0.02,0.58c-1.84-0.1-3.66,0.49-5.1,1.65c0.02-0.77,0.08-1.53,0.19-2.28
				C380.599,186.377,393.099,184.987,393.099,184.987z"/>
			<path style="fill:#FA9664;" d="M374.899,206.427l3.32-2.71c0.02-0.01,0.03-0.03,0.05-0.03c0.02-0.77,0.08-1.53,0.19-2.28
				c2.14-15.03,14.64-16.42,14.64-16.42c-0.5-2.11-1.35-3.82-2.23-5.15c-0.17-0.25-0.34-0.49-0.51-0.72
				c-1.21-1.61-2.87-2.81-4.69-3.68c-7.98-3.84-7.16-11.1-7.16-11.1c1.05-4.51-0.6-6.71-1.89-7.7c-0.6-0.46-1.34-0.7-2.09-0.8
				c-1.53-0.22-2.79-0.66-3.83-1.21c-1.24-0.65-2.21-1.59-2.87-2.68h-0.01c-5.77,4.3-9.85,5.31-12.72,4.77l-0.05,0.26
				c0,0-1.31,3.77-3.08,9.38c-0.04,0.09-0.06,0.18-0.09,0.28c-2.67,8.42-6.35,20.81-8.29,30.86c-0.51,2.61-0.9,5.07-1.12,7.25
				c-0.44,4.23,1.35,8.32,4.58,10.83c0.92,0.72,1.95,1.31,3.09,1.73c0.37,0.14,0.76,0.27,1.16,0.38c2.33,0.7,5.24,1.08,8.86,0.87
				c0.45-0.02,0.9-0.07,1.35-0.15c1.02-0.15,2.03-0.42,3.01-0.77c3.23-1.16,9.43-3.44,11.32-4.54l0.06,0.04
				c0.72-0.91,1.65-1.48,2.67-1.82v-0.01c-0.04-0.27-0.07-0.66-0.1-1.13l-0.78,0.42c-0.38,0.2-0.79,0.3-1.2,0.3
				c-0.74,0-1.47-0.33-1.96-0.94C373.659,208.877,373.819,207.297,374.899,206.427z M356.159,175.927c-0.91,0-1.65-0.74-1.65-1.65
				c0-0.9,0.74-1.64,1.65-1.64s1.65,0.74,1.65,1.64C357.809,175.187,357.069,175.927,356.159,175.927z M375.839,181.177
				c0.91,0,1.65,0.74,1.65,1.65c0,0.9-0.74,1.64-1.65,1.64c-0.9,0-1.64-0.74-1.64-1.64
				C374.199,181.917,374.939,181.177,375.839,181.177z"/>
			<path style="fill:#DD6936;" d="M383.999,209.247l2.57,2.49c0,0-4.49-1.6-8-0.42v-0.01c-0.04-0.27-0.07-0.66-0.1-1.13l2.47-1.34
				C381.939,208.287,383.179,208.457,383.999,209.247z"/>
			<path style="fill:#DD6936;" d="M377.519,222.697l3.01-5.4c0,0-1.06,3.75-3.4,8.86c-1.47,3.22-1.76,6.85-0.89,10.28l-14.73-18.03
				c1.02-0.15,2.03-0.42,3.01-0.77c3.23-1.16,9.43-3.44,11.32-4.54l0.06,0.04c-0.3,0.37-0.56,0.8-0.77,1.3l-2.44,5.93
				c-0.52,1.25-0.03,2.68,1.14,3.35c0.42,0.24,0.89,0.36,1.34,0.36C376.109,224.077,377.029,223.577,377.519,222.697z"/>
			<path style="fill:#FFFFFF;" d="M377.149,240.047l1.43,5.61h-0.01c-9.36,8.5-21.55,3.91-21.55,3.91
				c-8.18-2.95-11.38-9.08-12.28-15.34c1.85,0.42,3.7,0.58,5.61,0.64c0.68,2.21,1.8,4.35,3.54,6.24c3.39,3.69,8.4,5.58,13.37,5.01
				C370.549,245.737,374.359,244.257,377.149,240.047z"/>
			<path style="fill:#FA9664;" d="M441.359,299.387c-5.2-17.91-16.21-24.88-22.5-27.47c0,0-1,9.25,0.35,22.35l-7.5-16.34
				l-5.65-12.32l-8.4-18.31c-0.81-1.75-1.38-3.6-1.65-5.51c-0.6-4.32-0.52-11.67,4.76-18.59l1.3-1.86c1.24-1.76,1.81-3.9,1.63-6.04
				l-0.59-6.77l-0.33-3.68l-1.14-13.05c-0.11-1.23-1.15-2.18-2.39-2.18c-0.25,0-0.49,0.04-0.71,0.11c-0.37,0.12-0.7,0.32-0.97,0.59
				c-0.43,0.43-0.7,1.03-0.7,1.69v6.59c-0.45-0.3-0.94-0.54-1.48-0.68l-4.73-1.27c-1.66-0.45-3.44-0.2-4.91,0.69l-1.09,0.66
				c-1.18,0.71-1.71,2.15-1.27,3.46l-0.02,0.58c-1.84-0.1-3.66,0.49-5.1,1.65c-0.02,0-0.03,0.02-0.05,0.03l-3.32,2.71
				c-1.08,0.87-1.24,2.45-0.37,3.53c0.49,0.61,1.22,0.94,1.96,0.94c0.41,0,0.82-0.1,1.2-0.3l0.78-0.42l2.47-1.34
				c1-0.55,2.24-0.38,3.06,0.41l2.57,2.49c0,0-4.49-1.6-8-0.42c-1.02,0.34-1.95,0.91-2.67,1.82c-0.3,0.37-0.56,0.8-0.77,1.3
				l-2.44,5.93c-0.52,1.25-0.03,2.68,1.14,3.35c0.42,0.24,0.89,0.36,1.34,0.36c0.94,0,1.86-0.5,2.35-1.38l3.01-5.4
				c0,0-1.06,3.75-3.4,8.86c-1.47,3.22-1.76,6.85-0.89,10.28l0.91,3.61l1.43,5.61l1.42,5.61c0.24,0.97,0.45,1.94,0.63,2.92
				c1.75,9.67,11.94,65.08,18.02,77.4c0,0,2.22,4.88,7.01,6.67c2.26,0.86,5.09,1.02,8.54-0.36c2.83-1.12,6.06-3.28,9.73-6.95
				c0,0,9.67-14.34,17.44-31.56H441.359z"/>
			<path style="fill:#FA9664;" d="M350.349,234.867c-2.52-8.17,0.95-17.18,0.95-17.18c2.33,0.7,5.24,1.08,8.86,0.87
				c0.45-0.02,0.9-0.07,1.35-0.15l14.73,18.03l0.91,3.61c-2.79,4.21-6.6,5.69-9.89,6.07c-4.97,0.57-9.98-1.32-13.37-5.01
				C352.149,239.217,351.029,237.077,350.349,234.867z"/>
			<path d="M375.839,181.177c0.91,0,1.65,0.74,1.65,1.65c0,0.9-0.74,1.64-1.65,1.64c-0.9,0-1.64-0.74-1.64-1.64
				C374.199,181.917,374.939,181.177,375.839,181.177z"/>
			<path d="M356.159,172.637c0.91,0,1.65,0.74,1.65,1.64c0,0.91-0.74,1.65-1.65,1.65s-1.65-0.74-1.65-1.65
				C354.509,173.377,355.249,172.637,356.159,172.637z"/>
			<path style="fill:#FFFFFF;" d="M350.139,217.307c0.37,0.14,0.76,0.27,1.16,0.38c0,0-3.47,9.01-0.95,17.18
				c-1.91-0.06-3.76-0.22-5.61-0.64c-1.32-9.19,2.31-18.65,2.31-18.65C347.969,216.297,348.999,216.887,350.139,217.307z"/>
			<path style="fill:#CE3F38;" d="M320.389,224.717l-2.03,12.6c-1.82-1.12-3.56-2.33-5.2-3.68L320.389,224.717z"/>
			<path style="fill:#EF7369;" d="M313.159,233.637l7.23-8.92l-2.03,12.6c10.79,6.64,24.18,9.91,34.13,17.88
				c16.65,13.33,17.22,30.01,15.82,49.95c-1.03,14.71,0.67,31.34,11.04,42.78c8.58,9.48,20.55,15.35,32.7,13.48l-6.39-23.14v-0.01
				c-4.79-1.79-7.01-6.67-7.01-6.67c-6.08-12.32-16.27-67.73-18.02-77.4c-0.18-0.98-0.39-1.95-0.63-2.92l-1.42-5.61h-0.01
				c-9.36,8.5-21.55,3.91-21.55,3.91c-8.18-2.95-11.38-9.08-12.28-15.34c-1.7-0.39-3.41-1-5.16-1.99c-3.91-2.2-6.73-5.48-8.22-9.69
				c-2.56-7.24,0.86-17.36-2.58-23.69c-6.71,0.92-14.12,2.18-20.49,3.34c-0.69,0.13-1.38,0.24-2.07,0.34
				c-1.17,1.75-2.27,3.56-2.82,5.84c-1.73,7.21-0.71,12.95,3.66,18.9C308.849,229.717,310.909,231.807,313.159,233.637z
				 M437.289,265.407c-4.62-3.24-9.69-5.41-14.53-7.93c-4.38-2.28-8.58-4.85-12.09-8.77c-5.56-6.19-1.67-16.59,0.61-23.47
				c0.42-1.27,2.09-5.8,3.01-10.18c-3.18-2.65-6.52-5.22-9.98-7.61l-1.2,1.08l0.59,6.77c0.18,2.14-0.39,4.28-1.63,6.04l-1.3,1.86
				c-5.28,6.92-5.36,14.27-4.76,18.59c0.27,1.91,0.84,3.76,1.65,5.51l8.4,18.31l15.47-6.81c-1.7,1.94-3.38,4.19-4.89,6.81
				c0,0,18.6,0.51,27.9,26.28c1.1-2.81,2.12-5.65,2.99-8.47C446.159,276.167,443.029,269.427,437.289,265.407z M433.749,249.337
				c0.24,0.17,0.49,0.33,0.74,0.48c4.21,2.52,8.45,2.47,12.58,1.19c-0.3-0.5-0.62-0.98-0.95-1.46c-3.47-4.99-10.47-14-19.79-23.4
				c-0.39,4.35-0.86,8.48-0.33,11C427.029,242.047,429.519,246.507,433.749,249.337z M401.739,397.517
				c-3.36,1.93-6.7,3.02-10.12,3.26c-3.31,0.23-6.68-0.33-10.18-1.7c-14.07-5.52-15.39-18.39-14.94-31.62
				c0.11-3.28,0.23-8.36-0.56-13.03c-0.73-4.25-2.2-8.15-5.12-10.03c-5.37-3.46-10.93-0.38-15.36,4.32
				c-3.9,4.14-6.93,9.53-8.18,12.81c-4.13,10.83-4.79,24.73-1.5,36.14c1.45,0.51,2.97,1,4.56,1.47c9.36,2.78,21.07,4.79,35.5,4.95
				c5,0.06,10.33-0.11,16-0.55c4.22-0.32,8.64-0.8,13.25-1.44c3.8-0.53,7.04-2.63,9.11-5.59v-0.01c1.43-2.04,2.3-4.48,2.43-7.09
				c-0.92,0.16-1.82,0.4-2.69,0.73C409.509,391.807,405.799,395.187,401.739,397.517z M339.479,278.127
				c-4.96-4.01-11.4-5.48-17.03-8.41c-1.83-0.95-3.83-1.78-5.83-2.68v25.93l-4.61,49.93l-2.58,28c-0.41,4.43,0.7,8.76,3.02,12.37
				c1.32,2.06,3.03,3.89,5.09,5.36c-0.68-4.77-0.75-9.85-0.51-15.27c0.45-9.98,2.99-20,7.57-28.91c0.2-0.4,0.41-0.79,0.62-1.18
				c8.1-14.97,25.79-26.38,25.85-44.85C351.089,289.957,345.809,283.257,339.479,278.127z"/>
			<path style="fill:#7A9BFC;" d="M414.199,396.507c-2.07,2.96-5.31,5.06-9.11,5.59c-4.61,0.64-9.03,1.12-13.25,1.44
				c-5.67,0.44-11,0.61-16,0.55c-14.43-0.16-26.14-2.17-35.5-4.95c-1.59-0.47-3.11-0.96-4.56-1.47c-3.15-1.11-5.99-2.29-8.54-3.5
				c-3.6-1.71-6.63-3.47-9.12-5.13c-0.2-0.13-0.39-0.27-0.58-0.41c-2.06-1.47-3.77-3.3-5.09-5.36l-0.61,27.99l-0.45,20.48h105.25
				L414.199,396.507z"/>
			<path style="fill:#CE3F38;" d="M318.359,237.317l-0.97,6c-0.16,0.96-0.29,1.93-0.4,2.9c-2.34-0.31-6.9-1.61-11.55-3.05l7.72-9.53
				C314.799,234.987,316.539,236.197,318.359,237.317z"/>
			<path style="fill:#FF8983;" d="M307.059,227.277c-4.37-5.95-5.39-11.69-3.66-18.9c0.55-2.28,1.65-4.09,2.82-5.84
				c-2.57,0.4-5.15,0.66-7.73,0.77v0.01c0,0,1.87,18.77,0.34,37.73v0.01c2.06,0.67,4.35,1.41,6.61,2.11l7.72-9.53
				C310.909,231.807,308.849,229.717,307.059,227.277z M331.359,222.547c1.49,4.21,4.31,7.49,8.22,9.69
				c1.75,0.99,3.46,1.6,5.16,1.99c-1.32-9.19,2.31-18.65,2.31-18.65c-3.23-2.51-5.02-6.6-4.58-10.83c0.22-2.18,0.61-4.64,1.12-7.25
				c-3.62,0-8.95,0.55-14.81,1.36C332.219,205.187,328.799,215.307,331.359,222.547z M414.649,370.847l-2.6-9.44
				c-12.15,1.87-24.12-4-32.7-13.48c-10.37-11.44-12.07-28.07-11.04-42.78c1.4-19.94,0.83-36.62-15.82-49.95
				c-9.95-7.97-23.34-11.24-34.13-17.88l-0.97,6c-0.16,0.96-0.29,1.93-0.4,2.9c-0.24,2.2-0.37,4.41-0.37,6.62v14.2
				c2,0.9,4,1.73,5.83,2.68c5.63,2.93,12.07,4.4,17.03,8.41c6.33,5.13,11.61,11.83,11.59,20.29c-0.06,18.47-17.75,29.88-25.85,44.85
				c-0.21,0.39-0.42,0.78-0.62,1.18c-4.58,8.91-7.12,18.93-7.57,28.91c-0.24,5.42-0.17,10.5,0.51,15.27
				c0.19,0.14,0.38,0.28,0.58,0.41c2.49,1.66,5.52,3.42,9.12,5.13c2.55,1.21,5.39,2.39,8.54,3.5c-3.29-11.41-2.63-25.31,1.5-36.14
				c1.25-3.28,4.28-8.67,8.18-12.81c4.43-4.7,9.99-7.78,15.36-4.32c2.92,1.88,4.39,5.78,5.12,10.03c0.79,4.67,0.67,9.75,0.56,13.03
				c-0.45,13.23,0.87,26.1,14.94,31.62c3.5,1.37,6.87,1.93,10.18,1.7c3.42-0.24,6.76-1.33,10.12-3.26c4.06-2.33,7.77-5.71,12.2-7.38
				c0.87-0.33,1.77-0.57,2.69-0.73c0.01-0.27,0.01-0.55,0.01-0.83c-0.05-3.58-0.12-7.41-0.22-11.33L414.649,370.847z
				 M447.069,251.007c-4.13,1.28-8.37,1.33-12.58-1.19c-0.25-0.15-0.5-0.31-0.74-0.48c-4.23-2.83-6.72-7.29-7.75-12.19
				c-0.53-2.52-0.06-6.65,0.33-11c-3.67-3.71-7.71-7.48-12.04-11.09c-0.92,4.38-2.59,8.91-3.01,10.18
				c-2.28,6.88-6.17,17.28-0.61,23.47c3.51,3.92,7.71,6.49,12.09,8.77c4.84,2.52,9.91,4.69,14.53,7.93
				c5.74,4.02,8.87,10.76,10.24,18.01c2-6.4,3.31-12.72,3.4-18.45C451.009,260.037,449.609,255.217,447.069,251.007z"/>
			<path style="fill:#FFFFFF;" d="M298.489,203.317c0,0,1.87,18.77,0.34,37.73c-2.3-0.75-4.32-1.44-5.71-1.91
				c1.17-14.57-1.16-35.78-1.16-35.78v-0.01c2.18,0.09,4.36,0.08,6.53-0.04V203.317z"/>
			<path style="fill:#FA9664;" d="M291.959,203.357v-0.01c-5.37-0.2-10.72-0.97-15.95-2.31l-66.43-17.02l-15.26-16.84
				c-0.98-1.08-2.45-1.6-3.89-1.36l-2.01,0.32l-0.15,0.23l-1.41-0.88c-1.25-0.79-2.86-0.74-4.07,0.13l-3.64,2.62l0.01,0.17
				c-1,0.03-1.95,0.41-2.69,1.1l-3.48,3.21l-6.02,0.48c-1.17,0.14-2.01,1.2-1.87,2.38c0.13,1.08,1.05,1.89,2.13,1.89
				c0.06,0,0.11-0.01,0.17-0.01l5.81-0.48c1.31-0.11,2.62,0.02,3.88,0.39l4.89,1.42c1.69,0.49,2.67,2.25,2.19,3.95
				c-0.39,1.41-1.68,2.35-3.09,2.35c-0.25,0-0.5-0.03-0.75-0.09l-10.01-2.41c-1.42-0.34-2.85,0.51-3.23,1.92
				c-0.06,0.24-0.09,0.47-0.09,0.71c0,1.15,0.74,2.22,1.9,2.57l11.45,3.51c1.41,0.43,2.75,1.04,4,1.82l3.16,1.96
				c2.39,1.49,5.2,2.16,8,1.92l2.6-0.22c1.22-0.11,2.45,0.11,3.56,0.62l89.45,41.05c0,0,0.75,0.26,2,0.69
				C294.289,224.567,291.959,203.357,291.959,203.357z"/>
			<path style="fill:#C44C22;" d="M342.469,204.747c-0.17,3.557,1.181,7.088,3.658,9.492c2.452,2.484,5.975,3.408,9.423,3.751
				c1.728,0.162,3.509,0.197,5.227,0.021c1.738-0.102,3.356-0.687,5.055-1.259c1.684-0.565,3.364-1.144,5.035-1.745
				c1.679-0.582,3.355-1.169,4.972-1.911c-3.085,1.804-6.445,3.051-9.743,4.379c-1.624,0.666-3.39,1.312-5.218,1.478
				c-1.816,0.212-3.612,0.183-5.422,0.032c-1.805-0.178-3.595-0.551-5.312-1.18c-1.74-0.621-3.314-1.69-4.563-3.03
				c-1.252-1.344-2.183-2.964-2.734-4.691C342.327,208.346,342.185,206.507,342.469,204.747z"/>
			<path style="fill:#C44C22;" d="M426.199,309.507c-1.578-2.946-3.056-5.937-4.52-8.936c-1.474-2.994-2.875-6.02-4.279-9.046
				c-1.381-3.036-2.76-6.073-4.07-9.142l-1.96-4.605c-0.62-1.551-1.271-3.087-1.863-4.65c1.579,2.945,3.057,5.937,4.522,8.935
				c1.474,2.994,2.877,6.02,4.279,9.046c1.38,3.037,2.759,6.074,4.066,9.144C423.693,303.317,424.996,306.389,426.199,309.507z"/>
			<path style="fill:#C44C22;" d="M399.829,205.107c-0.491-1.067-0.887-2.159-1.25-3.259c-0.311-1.076-0.873-1.964-1.699-2.62
				c-0.394-0.329-0.869-0.596-1.348-0.775c-0.487-0.175-1.09-0.335-1.622-0.529c-1.099-0.371-2.188-0.776-3.251-1.277
				c1.171,0.099,2.316,0.294,3.451,0.523c0.583,0.113,1.103,0.229,1.724,0.386c0.614,0.196,1.167,0.498,1.674,0.894
				c0.991,0.789,1.661,2.011,1.823,3.201C399.552,202.789,399.738,203.936,399.829,205.107z"/>
			<path style="fill:#C44C22;" d="M380.529,217.297c-0.726,3.118-1.831,6.142-3.082,9.089c-1.193,2.871-1.523,6.079-0.905,9.111
				c0.706,3.057,1.522,6.184,2.211,9.289c0.689,3.116,1.454,6.223,1.875,9.401c-0.448-1.54-0.814-3.082-1.31-4.606l-1.311-4.606
				c-0.87-3.084-1.695-6.129-2.446-9.285c-0.636-3.227-0.245-6.667,1.187-9.619c0.703-1.43,1.361-2.875,1.985-4.34
				C379.382,220.276,379.967,218.794,380.529,217.297z"/>
			<path style="fill:#C44C22;" d="M386.569,211.737c-1.894-0.408-3.825-0.601-5.688-0.443c-1.845,0.17-3.669,0.828-4.699,2.293
				c-0.265,0.35-0.475,0.726-0.649,1.153l-0.566,1.335c-0.394,0.883-0.77,1.774-1.181,2.651l-0.61,1.317
				c-0.224,0.454-0.408,0.821-0.447,1.27c-0.121,0.884,0.312,1.831,1.1,2.403c-0.909-0.376-1.557-1.361-1.589-2.42
				c-0.026-0.53,0.174-1.073,0.331-1.504l0.494-1.365c0.325-0.912,0.685-1.81,1.027-2.715l0.538-1.347
				c0.183-0.471,0.436-0.953,0.752-1.377c0.628-0.84,1.507-1.514,2.47-1.902c0.967-0.375,1.983-0.56,2.985-0.568
				C382.842,210.486,384.788,210.961,386.569,211.737z"/>
			<path style="fill:#C44C22;" d="M395.759,212.587c-0.743-1.286-1.438-2.596-2.155-3.895c-0.362-0.648-0.694-1.311-1.042-1.965
				c-0.337-0.676-0.688-1.257-1.166-1.787c-0.942-1.042-2.207-1.767-3.56-2.052c-0.659-0.151-1.397-0.134-2.144-0.2l-2.218-0.15
				l0.035,0.001c-0.497-0.031-0.902-0.018-1.345,0.034c-0.434,0.054-0.864,0.139-1.282,0.269c-0.836,0.257-1.625,0.673-2.311,1.219
				l-0.3,0.107c0.171,0,0.283-0.102,0.283-0.102c0.009-0.01-0.034,0.037-0.119,0.08l0.088-0.057l-3.02,2.399
				c-0.264,0.214-0.495,0.375-0.662,0.573c-0.176,0.202-0.313,0.441-0.4,0.699c-0.176,0.516-0.145,1.109,0.097,1.614
				c0.463,1.049,1.811,1.572,2.925,1.112l3.475-1.649c-1.094,0.69-2.178,1.347-3.311,2.011c-1.239,0.689-2.999,0.14-3.672-1.174
				c-0.352-0.637-0.444-1.418-0.247-2.133c0.098-0.357,0.266-0.698,0.495-0.995c0.233-0.309,0.529-0.529,0.758-0.725l2.953-2.477
				l0.088-0.057c-0.067,0.035-0.095,0.067-0.071,0.045c0.011-0.011,0.144-0.127,0.335-0.126l-0.3,0.106
				c0.773-0.629,1.667-1.112,2.618-1.414c0.476-0.15,0.966-0.261,1.463-0.315c0.488-0.056,1.023-0.062,1.461-0.027l0.036,0.001
				l2.217,0.172c0.726,0.068,1.484,0.081,2.272,0.273c1.543,0.356,2.943,1.248,3.911,2.474c0.489,0.598,0.866,1.322,1.151,1.99
				c0.303,0.677,0.623,1.345,0.912,2.029C394.592,209.858,395.2,211.211,395.759,212.587z"/>
			<path style="fill:#A51E1E;" d="M436.769,248.047c-1.442,0.625-2.823,1.361-4.153,2.176c-1.342,0.793-2.633,1.667-3.866,2.613
				c-1.242,0.933-2.437,1.926-3.577,2.977c-1.152,1.039-2.214,2.175-3.263,3.307l-0.158,0.17l-0.213-0.001l-0.01,0l0.37-0.168
				c-1.721,1.941-3.269,4.025-4.68,6.208c-0.703,1.096-1.349,2.227-1.97,3.374c-0.644,1.137-1.169,2.335-1.753,3.514
				c0.393-1.253,0.831-2.495,1.349-3.709c0.517-1.214,1.123-2.388,1.756-3.547c1.266-2.324,2.824-4.489,4.559-6.489l0.145-0.167
				l0.225-0.001h0.01l-0.371,0.169c2.105-2.388,4.483-4.518,7.108-6.301c1.316-0.883,2.683-1.687,4.092-2.403
				C433.791,249.085,435.245,248.449,436.769,248.047z"/>
			<path style="fill:#A51E1E;" d="M321.379,218.617c-0.449,4.045-1.003,8.074-1.569,12.1c-0.565,4.026-1.219,8.038-1.828,12.059
				c-0.313,2.001-0.628,3.985-0.765,6.003c-0.176,2.014-0.159,4.024-0.213,6.063l-0.139,6.098c-0.083,2.033-0.132,4.065-0.245,6.098
				c-0.113-2.033-0.162-4.065-0.245-6.098l-0.139-6.098c-0.161-4.064,0.115-8.193,0.762-12.227c0.691-4.005,1.33-8.019,2.058-12.02
				l1.107-5.998C320.569,222.604,320.942,220.605,321.379,218.617z"/>
			<path style="fill:#3660C9;" d="M340.339,399.137c0.274,2.712,0.439,5.426,0.586,8.14c0.16,2.714,0.238,5.431,0.317,8.147
				c0.055,2.717,0.108,5.434,0.083,8.153l-0.04,4.078c-0.05,1.36-0.066,2.72-0.146,4.081c-0.146-1.355-0.228-2.713-0.344-4.069
				l-0.239-4.072c-0.157-2.715-0.236-5.431-0.313-8.147c-0.054-2.717-0.106-5.434-0.083-8.153
				C340.172,404.578,340.201,401.859,340.339,399.137z"/>
			<path style="fill:#3660C9;" d="M405.089,402.097c0,0,2.09,10.96,2.93,21.73c0.21,2.71,0.34,5.41,0.34,7.91"/>
			<path style="fill:#3660C9;" d="M375.839,404.097c0.31,1.731,0.844,3.406,1.544,4.998c0.687,1.597,1.542,3.117,2.563,4.509
				c2.031,2.794,4.709,5.074,7.755,6.669c3.038,1.632,6.42,2.548,9.848,3.088c0.857,0.146,1.727,0.209,2.593,0.318l2.615,0.151
				l2.627,0.05c0.876-0.029,1.754-0.046,2.635-0.054h0l0.01,0.001l-0.01,0.001h0c-3.478,0.525-7.035,0.681-10.566,0.298
				c-3.525-0.371-7.042-1.288-10.219-2.969c-3.162-1.681-5.965-4.11-7.916-7.116C377.362,411.056,376.074,407.62,375.839,404.097z"
				/>
			<path style="fill:#3660C9;" d="M311.839,411.257c1.843-0.768,3.507-1.845,5.072-3.014c1.547-1.197,2.984-2.528,4.254-4.009
				c2.572-2.95,4.488-6.404,6.074-10.067c-0.829,3.909-2.669,7.65-5.318,10.721c-1.335,1.526-2.867,2.885-4.563,3.99
				C315.666,409.979,313.805,410.857,311.839,411.257z"/>
			<path style="fill:#C44C22;" d="M191.909,168.647c-1.152-0.477-2.254-1.036-3.334-1.629c-0.545-0.289-1.073-0.605-1.609-0.908
				c-0.281-0.156-0.51-0.319-0.749-0.415c-0.244-0.105-0.501-0.179-0.763-0.221c-0.522-0.103-1.068-0.052-1.578,0.107
				c-0.258,0.074-0.504,0.19-0.736,0.329l-0.767,0.487c-1.041,0.659-2.103,1.289-3.223,1.839c0.877-0.888,1.812-1.694,2.768-2.473
				c0.244-0.199,0.461-0.386,0.736-0.583c0.28-0.2,0.584-0.371,0.909-0.494c0.652-0.239,1.369-0.314,2.06-0.198
				c0.675,0.104,1.373,0.48,1.845,0.821c0.507,0.349,1.024,0.682,1.52,1.049C189.99,167.077,190.976,167.818,191.909,168.647z"/>
			<path style="fill:#C44C22;" d="M188.109,169.137c-2.805,0.11-5.587-0.107-8.329-0.226c-1.338-0.117-2.453,0.3-3.459,1.264
				c-1.067,0.895-2.178,1.743-3.332,2.543c0.89-1.086,1.824-2.124,2.801-3.115c0.438-0.493,1.073-1.059,1.784-1.345
				c0.718-0.311,1.52-0.379,2.241-0.345C182.63,168.067,185.381,168.465,188.109,169.137z"/>
			<path style="fill:#C44C22;" d="M185.529,171.717c-3.062,0.639-6.148,0.975-9.24,1.238c-3.094,0.233-6.195,0.39-9.32,0.242
				c3.062-0.641,6.148-0.977,9.24-1.238C179.304,171.728,182.404,171.572,185.529,171.717z"/>
			<path style="fill:#C44C22;" d="M361.509,175.447c-0.697,2.337-1.571,4.586-2.507,6.804c-0.925,2.224-1.954,4.396-3.004,6.558
				l-1.593,3.112c-0.278,0.595,0.081,1.424,0.878,1.628c2.167,0.587,4.528,0.5,6.887-0.112c-2.009,1.378-4.632,2.019-7.189,1.643
				c-0.761-0.076-1.612-0.567-2.045-1.297c-0.462-0.716-0.594-1.664-0.311-2.505l0.12-0.305l0.099-0.211l0.195-0.406l0.39-0.813
				l0.781-1.624c1.085-2.144,2.191-4.278,3.401-6.359C358.809,179.473,360.071,177.416,361.509,175.447z"/>
			<path style="fill:#C44C22;" d="M350.779,198.867c1.732,1.065,3.616,1.812,5.545,2.235c1.93,0.398,3.922,0.504,5.844,0.114
				c0.485-0.063,0.949-0.234,1.425-0.345c0.235-0.067,0.477-0.113,0.707-0.198l0.681-0.281c0.451-0.195,0.929-0.333,1.361-0.574
				l1.302-0.716c0.453-0.212,0.844-0.523,1.254-0.807l1.237-0.855c0.79-0.619,1.531-1.305,2.342-1.933
				c-0.645,0.782-1.326,1.547-2.021,2.304l-1.165,1.01c-0.391,0.337-0.779,0.68-1.228,0.94c-1.687,1.212-3.667,2.005-5.716,2.438
				c-2.067,0.399-4.223,0.237-6.216-0.344C354.133,201.28,352.281,200.244,350.779,198.867z"/>
			<path style="fill:#3E2B7C;" d="M371.739,174.797c1.102-0.488,2.291-0.63,3.475-0.618c1.185,0.028,2.381,0.259,3.509,0.721
				c1.126,0.459,2.183,1.165,3.001,2.087c0.824,0.904,1.398,2.057,1.505,3.25c-0.868-0.829-1.656-1.523-2.548-2.074
				c-0.864-0.567-1.765-1.02-2.716-1.413C376.056,175.959,374.002,175.471,371.739,174.797z"/>
			<path style="fill:#3E2B7C;" d="M351.959,166.357l0.01-0.005l0.001,0c0.801-0.35,1.62-0.428,2.428-0.418
				c0.807,0.025,1.609,0.169,2.376,0.441c0.766,0.274,1.5,0.671,2.144,1.2c0.629,0.548,1.184,1.22,1.441,2.052
				c-0.844-0.231-1.529-0.464-2.22-0.687c-0.691-0.218-1.36-0.436-2.032-0.68c-0.673-0.241-1.351-0.493-2.037-0.791
				c-0.687-0.307-1.379-0.631-2.101-1.107l0,0L351.959,166.357z"/>
			<g>
				<path style="fill:#3E2B7C;" d="M419.489,170.047c-0.33,0.59-0.66,1.17-0.93,1.8c-0.35,0.85-0.83,2.13-1.15,3.55
					c-0.01,0.06-0.03,0.12-0.04,0.18c-0.01,0.06-0.03,0.13-0.04,0.19c-0.31,1.49-0.45,3.09-0.12,4.54c0,0,0.59,2.01,0.44,4.58
					c-0.19,3.45-1.73,7.92-7.85,9.82h-0.01l-1.37-1.94l-0.07-0.1l-0.07-0.1l-6.07-8.55l-3.54,2.87l-0.13,0.1l-0.14,0.11l-4.9,3.97
					c0.21-2.31,0.02-4.33-0.4-6.08c-0.5-2.11-1.35-3.82-2.23-5.15c-0.17-0.25-0.34-0.49-0.51-0.72c-1.21-1.61-2.87-2.81-4.69-3.68
					c-7.98-3.84-7.16-11.1-7.16-11.1c1.05-4.51-0.6-6.71-1.89-7.7c-0.6-0.46-1.34-0.7-2.09-0.8c-1.53-0.22-2.79-0.66-3.83-1.21
					c-1.24-0.65-2.21-1.59-2.87-2.68c-1.01-1.63-1.35-3.6-0.96-5.42c0.02-0.09,0.04-0.17,0.06-0.26c0.02-0.08,0.04-0.16,0.07-0.24
					c0.05-0.21,0.12-0.41,0.2-0.61c0.5-1.28,1.41-2.43,2.74-3.25c0.71-0.43,1.46-0.72,2.17-0.83c0.62-0.09,1.22-0.05,1.76,0.15
					c0.24,0.09,0.48,0.17,0.73,0.25c3.51,1.08,7.28,0.74,10.59-0.76l0.25-0.11c0.74-0.34,1.45-0.75,2.13-1.21
					c0.02-0.01,0.03-0.02,0.05-0.03c0.22-0.15,0.45-0.31,0.66-0.47c1.32-0.99,2.78-1.76,4.34-2.27c0.43-0.14,0.86-0.26,1.31-0.35
					l0.27-0.06c0.73-0.14,1.49-0.23,2.24-0.25c2.53-0.06,5.49,0.54,8.34,2.68c2.41,1.81,4.1,4.4,5,7.27c0.62,2,1.89,4.87,4.35,6.82
					c1.22,0.98,2.38,2.03,3.3,3.28C419.669,159.327,422.509,164.777,419.489,170.047z"/>
				<path style="fill:#3E2B7C;" d="M392.619,136.887c-1.56,0.51-3.02,1.28-4.34,2.27c-0.18,0.14-0.37,0.27-0.56,0.4
					c-0.03,0.02-0.07,0.05-0.1,0.07c-0.02,0.01-0.03,0.02-0.05,0.03c-0.02,0.01-0.03,0.02-0.05,0.03c-0.7,0.48-1.44,0.89-2.2,1.24
					c-3.34,1.54-7.16,1.9-10.72,0.81c-0.25-0.08-0.49-0.16-0.73-0.25c-0.5-0.18-1.05-0.23-1.62-0.17c-0.05,0.01-0.09,0.01-0.14,0.02
					c-0.05,0.01-0.09,0.02-0.14,0.03c-0.67,0.12-1.37,0.4-2.03,0.8c-1.29,0.79-2.18,1.9-2.68,3.13h-0.01
					c-0.02,0.04-0.03,0.08-0.05,0.12c-0.02,0.04-0.03,0.09-0.04,0.13h-0.01c-0.09,0.24-0.16,0.47-0.22,0.72
					c-0.48,1.89-0.16,3.97,0.9,5.68h-0.01c-5.77,4.3-9.85,5.31-12.72,4.77c-5.54-1.02-6.55-7.82-6.55-7.82
					c-0.01-0.08-0.02-0.16-0.02-0.23l-0.04-0.39v-0.01c-0.51-5.65,1.75-8.73,4.18-10.4c2.05-1.41,4.58-1.96,7.06-1.75
					c1.28,0.11,2.48,0.17,3.6,0.18c0.09,0.01,0.17,0.01,0.25,0.01h0.25c6.61,0.04,10.52-1.35,12.1-2.05
					c0.09-0.04,0.19-0.08,0.28-0.12c0.05-0.02,0.09-0.04,0.14-0.06c0.05-0.02,0.11-0.04,0.16-0.06c1.24-0.52,2.53-0.91,3.85-1.11
					C388.319,131.717,392.619,136.887,392.619,136.887z"/>
				<path style="fill:#5E4DDB;" d="M394.529,173.517c-0.65-0.84-1.31-1.6-1.94-2.34c-2.22-2.58-4.13-4.81-4.43-8.74
					c-0.37-4.55-1.8-7.01-5.3-9.09c-2.05-1.21-4.26-1.22-6.4-1.23c-1.69-0.01-3.44-0.02-5.09-0.62c-2.09-0.76-3.83-2.88-4.32-5.27
					c-0.02-0.04-0.02-0.09-0.03-0.14l-0.01-0.03c0-0.01,0-0.02-0.01-0.03c-0.03,0.08-0.05,0.16-0.07,0.24
					c-0.02,0.09-0.04,0.17-0.06,0.26c0.56,2.37,2.31,4.44,4.42,5.21c1.69,0.61,3.46,0.62,5.16,0.63c2.11,0.01,4.29,0.02,6.29,1.2
					c3.41,2.03,4.81,4.44,5.17,8.89c0.31,4.01,2.25,6.27,4.49,8.88c0.63,0.74,1.28,1.5,1.93,2.34c1.57,2.02,2.81,4.64,3.5,7.37
					c0.53,2.02,0.73,4.07,0.58,5.93c0,0.04,0,0.08-0.01,0.12l0.14-0.11l0.13-0.1c0.13-1.85-0.07-3.89-0.6-5.9
					C397.369,178.227,396.119,175.577,394.529,173.517z M410.149,183.227c-0.49-1.99-1.48-3.91-2.78-5.41
					c-0.88-1.01-1.88-1.99-2.95-3.03c-3.18-3.09-6.47-6.3-6.52-10.49c-0.03-1.36,0.06-2.77,0.14-4.14
					c0.28-4.79,0.56-9.74-3.42-13.47c-1.34-1.25-3.04-2.12-4.68-2.97l-0.51-0.26c-1.39-0.72-2.85-1.51-3.99-2.59l-0.25,0.11
					c0.01,0.01,0.03,0.03,0.04,0.04c1.18,1.12,2.67,1.93,4.08,2.66l0.52,0.27c1.62,0.83,3.31,1.69,4.62,2.92
					c3.9,3.66,3.61,8.54,3.34,13.27c-0.08,1.37-0.17,2.79-0.14,4.16c0.06,4.3,3.38,7.54,6.6,10.67c1.06,1.04,2.06,2.01,2.93,3.01
					c1.27,1.48,2.24,3.36,2.73,5.31c0.14,0.57,0.24,1.18,0.31,1.8c0.17,1.82-0.02,5.72-1.94,7.48l0.07,0.1l0.07,0.1l0.01-0.01
					c2.02-1.82,2.21-5.83,2.03-7.69C410.399,184.427,410.299,183.807,410.149,183.227z M413.539,170.677
					c-0.64-0.63-1.32-1.23-1.99-1.8c-1.12-0.98-2.29-1.99-3.21-3.19c-2.57-3.32-2.21-6.87-1.83-10.64c0.14-1.36,0.28-2.77,0.28-4.18
					c-0.01-5.95-3.73-8.55-8.59-11.32c-1.81-1.03-3.01-1.95-4-3.07l-0.27,0.06c0.01,0.02,0.03,0.03,0.04,0.05
					c1.01,1.16,2.24,2.11,4.11,3.18c4.78,2.73,8.45,5.28,8.46,11.1c0,1.4-0.14,2.8-0.28,4.16c-0.39,3.81-0.75,7.42,1.88,10.82
					c0.94,1.21,2.12,2.23,3.25,3.22c0.66,0.57,1.34,1.16,1.97,1.79c1.65,1.64,2.93,3.2,3.9,4.78c0.03,0.04,0.05,0.09,0.07,0.13
					c0.01-0.06,0.03-0.13,0.04-0.19c0.01-0.06,0.03-0.12,0.04-0.18C416.429,173.837,415.159,172.287,413.539,170.677z"/>
				<path style="fill:#5E4DDB;" d="M367.189,145.297c-2.09,0.15-3.97,1.56-5.96,3.05c-1.15,0.86-2.33,1.75-3.62,2.45
					c-3.12,1.68-6.86-0.07-9.01-2.41c-0.04-0.04-0.06-0.07-0.11-0.11l0.04,0.39c1.6,1.69,4,3.05,6.4,3.05c0.95,0,1.9-0.21,2.8-0.7
					c1.31-0.71,2.5-1.6,3.65-2.47c1.94-1.46,3.77-2.84,5.77-3h0.01c0.01-0.04,0.02-0.09,0.04-0.13c0.02-0.04,0.03-0.08,0.05-0.12
					H367.189z M372.199,141.257c-1.35-1.54-3.38-2.49-5.36-3.41c-1.01-0.48-2.05-0.97-3.01-1.54h-0.25c-0.08,0-0.16,0-0.25-0.01
					c0.06,0.05,0.12,0.08,0.18,0.12c1.02,0.62,2.14,1.14,3.23,1.65c2.02,0.95,3.91,1.84,5.23,3.3c0.05-0.01,0.09-0.02,0.14-0.03
					c0.05-0.01,0.09-0.01,0.14-0.02C372.239,141.297,372.219,141.277,372.199,141.257z M387.709,139.547
					c-1.25-1.4-3.04-2.28-4.78-3.06c-0.65-0.3-1.51-0.59-2.42-0.9c-1.3-0.43-2.77-0.92-4-1.57c-0.05,0.02-0.11,0.04-0.16,0.06
					c-0.05,0.02-0.09,0.04-0.14,0.06c0.02,0.02,0.05,0.03,0.08,0.05c1.27,0.68,2.8,1.19,4.14,1.64c0.9,0.3,1.76,0.59,2.4,0.88
					c1.7,0.78,3.46,1.63,4.69,2.98c0.02-0.01,0.03-0.02,0.05-0.03c0.02-0.01,0.03-0.02,0.05-0.03c0.03-0.02,0.07-0.05,0.1-0.07
					L387.709,139.547z"/>
				<path style="fill:#110647;" d="M408.696,143.564c-1.036-1.776-2.402-3.355-4.068-4.515c-1.665-1.155-3.548-1.989-5.537-2.288
					c-1.982-0.318-4.022-0.166-5.927,0.427c-0.961,0.25-1.882,0.666-2.758,1.138c-0.901,0.478-1.642,1.053-2.524,1.687l-0.054,0.032
					l-0.05,0.03l0.054-0.031c-2.506,1.722-5.512,2.743-8.566,2.795c-1.524,0.027-3.054-0.155-4.518-0.59
					c-0.367-0.094-0.732-0.245-1.075-0.358c-0.294-0.106-0.614-0.157-0.941-0.159c-0.657-0.009-1.322,0.181-1.953,0.469
					c-1.255,0.577-2.35,1.552-3.001,2.792c-0.628,1.245-0.92,2.695-0.711,4.11c0.193,1.407,0.782,2.782,1.729,3.878
					c0.473,0.548,1.034,1.023,1.653,1.409c0.63,0.37,1.318,0.639,1.983,0.967c-0.682-0.274-1.402-0.483-2.069-0.818
					c-0.656-0.357-1.264-0.811-1.791-1.352c-1.045-1.086-1.793-2.487-2.041-4.003c-0.277-1.514-0.032-3.099,0.619-4.511
					c0.681-1.403,1.85-2.565,3.268-3.243c0.705-0.333,1.491-0.576,2.317-0.576c0.411-0.001,0.831,0.057,1.235,0.196
					c0.36,0.114,0.681,0.244,1.03,0.329c1.373,0.39,2.814,0.544,4.241,0.501c2.854-0.11,5.684-1.018,8.067-2.609l0.054-0.032
					l0.05-0.03l-0.054,0.032c1.614-1.219,3.523-2.357,5.571-2.88c2.032-0.619,4.216-0.654,6.281-0.258
					c2.071,0.403,4.037,1.31,5.663,2.619C406.509,140.023,407.821,141.7,408.696,143.564z"/>
			</g>
		</g>
	</g>
</g>
</svg>
